<svg width="32" height="32" viewBox="0 0 32 32" fill="none" xmlns="http://www.w3.org/2000/svg">
<path d="M16 17.414L6.11608 27.2951C5.72662 27.6845 5.09531 27.6845 4.70577 27.2953C4.31601 26.9058 4.31587 26.2741 4.70545 25.8844L14.588 16L4.7056 6.11947C4.3158 5.72974 4.31543 5.0979 4.70478 4.70772C5.09469 4.31698 5.72764 4.31664 6.11797 4.70697L16 14.589L25.8801 4.70707C26.2704 4.31662 26.9035 4.3167 27.2937 4.70725C27.6838 5.09761 27.6837 5.73025 27.2934 6.12043L17.412 16L27.2936 25.8834C27.6836 26.2736 27.6833 26.9061 27.2928 27.2957C26.9029 27.6848 26.2715 27.6845 25.882 27.295L16 17.414Z" fill="#111111"/>
</svg>
